<?xml version="1.0" encoding="utf-8"?>
<!DOCTYPE svg PUBLIC "-//W3C//DTD SVG 1.1//EN" "http://www.w3.org/Graphics/SVG/1.1/DTD/svg11.dtd">
<svg  version="1.1" id="Layer_1" xmlns="http://www.w3.org/2000/svg" xmlns:xlink="http://www.w3.org/1999/xlink" width="667.99" height="335" viewBox="0 0 667.99 335"
	 overflow="visible" enable-background="new 0 0 667.99 335" xml:space="preserve">
<g>
	<path fill="none" stroke="#28501E" d="M23.5,95.5l-18,144l18,72l18-144L23.5,95.5v-72"/>
	<path fill="none" stroke="#28501E" d="M113.5,167.5h72l72,18"/>
	<path fill="none" stroke="#28501E" d="M329.5,149.5l-144,18"/>
	<path fill="none" stroke="#28501E" d="M428.495,23.5h72l72,18"/>
	<path fill="none" stroke="#28501E" d="M644.495,5.5l-144,18"/>
	<path fill="none" stroke="#28501E" d="M428.495,95.5h72l72,18"/>
	<path fill="none" stroke="#28501E" d="M644.495,77.5l-144,18"/>
	<path fill="none" stroke="#28501E" d="M446.495,167.5h72l72,18"/>
	<path fill="none" stroke="#28501E" d="M662.495,149.5l-144,18"/>
	<path fill="none" stroke="#28501E" d="M410.495,239.5h72l72,18"/>
	<path fill="none" stroke="#28501E" d="M626.495,221.5l-144,18"/>
	<path fill="none" stroke="#28501E" d="M428.495,311.5h72l72,18"/>
	<path fill="none" stroke="#28501E" d="M644.495,293.5l-144,18"/>
	<path fill="none" stroke="#28501E" d="M428.5,95.5l-18,144l18,72l18-144L428.5,95.5v-72"/>
	<path fill="none" stroke="#28501E" d="M500.5,95.5l-18,144l18,72l18-144L500.5,95.5v-72"/>
	<path fill="none" stroke="#28501E" d="M572.5,113.5l-18,144l18,72l18-144L572.5,113.5v-72"/>
	<path fill="none" stroke="#28501E" d="M644.5,77.5l-18,144l18,72l18-144L644.5,77.5v-72"/>
	<g>
		<g enable-background="new    ">
			<path d="M382.714,161.219v3.938h-24.438v-3.938H382.714z M382.714,171.281v4h-24.438v-4H382.714z"/>
		</g>
		<g enable-background="new    ">
			<path d="M382.714,161.219v3.938h-24.438v-3.938H382.714z M382.714,171.281v4h-24.438v-4H382.714z"/>
		</g>
	</g>
	<path fill="none" stroke="#000000" stroke-width="2" d="M68.495,176.5h18v-18h-18V176.5z"/>
</g>
<path fill="#4210D2" stroke="#000000" d="M28.5,23.5c0,2.761-2.239,5-5,5s-5-2.239-5-5s2.239-5,5-5S28.5,20.739,28.5,23.5z"/>
<path fill="#0000FF" stroke="#000000" d="M28.5,95.5c0,2.761-2.239,5-5,5s-5-2.239-5-5s2.239-5,5-5S28.5,92.739,28.5,95.5z"/>
<path fill="#006699" stroke="#000000" d="M46.5,167.5c0,2.761-2.239,5-5,5s-5-2.239-5-5s2.239-5,5-5S46.5,164.739,46.5,167.5z"/>
<path fill="#00A0C6" stroke="#000000" d="M10.5,239.5c0,2.762-2.239,5-5,5s-5-2.238-5-5s2.239-5,5-5S10.5,236.738,10.5,239.5z"/>
<path fill="#00FFFF" stroke="#000000" d="M28.5,311.5c0,2.762-2.239,5-5,5s-5-2.238-5-5s2.239-5,5-5S28.5,308.738,28.5,311.5z"/>
<path fill="#8B5C29" stroke="#000000" d="M118.5,167.5c0,2.761-2.239,5-5,5s-5-2.239-5-5s2.239-5,5-5S118.5,164.739,118.5,167.5z"/>
<path fill="#FF7F00" stroke="#000000" d="M190.5,167.5c0,2.761-2.239,5-5,5s-5-2.239-5-5s2.239-5,5-5S190.5,164.739,190.5,167.5z"/>
<path fill="#FFFF00" stroke="#000000" d="M262.5,185.5c0,2.761-2.239,5-5,5s-5-2.239-5-5s2.239-5,5-5
	C260.261,180.5,262.5,182.739,262.5,185.5z"/>
<path fill="#E4BC96" stroke="#000000" d="M334.5,149.5c0,2.761-2.239,5-5,5s-5-2.239-5-5s2.239-5,5-5S334.5,146.739,334.5,149.5z"/>
<path fill="#4210D2" stroke="#000000" d="M428.5,28.5c-2.761,0-5-2.239-5-5s2.239-5,5-5"/>
<path fill="#4210D2" stroke="#000000" d="M500.5,28.5c-2.761,0-5-2.239-5-5s2.239-5,5-5"/>
<path fill="#4210D2" stroke="#000000" d="M572.5,45.5c-2.761,0-5-2.239-5-5s2.239-5,5-5"/>
<path fill="#4210D2" stroke="#000000" d="M644.5,10.5c-2.761,0-5-2.239-5-5s2.239-5,5-5"/>
<path fill="#0000FF" stroke="#000000" d="M428.5,100.5c-2.761,0-5-2.239-5-5s2.239-5,5-5"/>
<path fill="#0000FF" stroke="#000000" d="M500.5,100.5c-2.761,0-5-2.239-5-5s2.239-5,5-5"/>
<path fill="#0000FF" stroke="#000000" d="M572.5,117.5c-2.761,0-5-2.239-5-5s2.239-5,5-5"/>
<path fill="#0000FF" stroke="#000000" d="M644.5,82.5c-2.761,0-5-2.239-5-5s2.239-5,5-5"/>
<path fill="#006699" stroke="#000000" d="M445.5,172.5c-2.761,0-5-2.239-5-5s2.239-5,5-5"/>
<path fill="#006699" stroke="#000000" d="M517.5,172.5c-2.761,0-5-2.239-5-5s2.239-5,5-5"/>
<path fill="#006699" stroke="#000000" d="M589.5,189.5c-2.761,0-5-2.239-5-5s2.239-5,5-5"/>
<path fill="#006699" stroke="#000000" d="M661.5,154.5c-2.761,0-5-2.239-5-5s2.239-5,5-5"/>
<path fill="#00A0C6" stroke="#000000" d="M410.495,244.5c-2.761,0-5-2.238-5-5s2.239-5,5-5"/>
<path fill="#00A0C6" stroke="#000000" d="M554.495,261.5c-2.761,0-5-2.238-5-5s2.239-5,5-5"/>
<path fill="#00A0C6" stroke="#000000" d="M626.495,226.5c-2.761,0-5-2.238-5-5s2.239-5,5-5"/>
<path fill="#00A0C6" stroke="#000000" d="M482.495,244.5c-2.761,0-5-2.238-5-5s2.239-5,5-5"/>
<path fill="#00FFFF" stroke="#000000" d="M428.5,316.5c-2.761,0-5-2.238-5-5s2.239-5,5-5"/>
<path fill="#00FFFF" stroke="#000000" d="M500.5,316.5c-2.761,0-5-2.238-5-5s2.239-5,5-5"/>
<path fill="#00FFFF" stroke="#000000" d="M572.5,333.5c-2.761,0-5-2.238-5-5s2.239-5,5-5"/>
<path fill="#00FFFF" stroke="#000000" d="M644.5,298.5c-2.761,0-5-2.238-5-5s2.239-5,5-5"/>
<path fill="#8B5C29" stroke="#000000" d="M428.5,18.5c2.761,0,5,2.239,5,5s-2.239,5-5,5"/>
<path fill="#8B5C29" stroke="#000000" d="M428.5,90.5c2.761,0,5,2.239,5,5s-2.239,5-5,5"/>
<path fill="#8B5C29" stroke="#000000" d="M445.5,162.5c2.761,0,5,2.239,5,5s-2.239,5-5,5"/>
<path fill="#8B5C29" stroke="#000000" d="M410.495,234.5c2.761,0,5,2.239,5,5s-2.239,5-5,5"/>
<path fill="#8B5C29" stroke="#000000" d="M428.5,306.5c2.761,0,5,2.239,5,5s-2.239,5-5,5"/>
<path fill="#FF7F00" stroke="#000000" d="M500.5,18.5c2.761,0,5,2.239,5,5s-2.239,5-5,5"/>
<path fill="#FF7F00" stroke="#000000" d="M500.5,90.5c2.761,0,5,2.239,5,5s-2.239,5-5,5"/>
<path fill="#FF7F00" stroke="#000000" d="M517.5,162.5c2.761,0,5,2.239,5,5s-2.239,5-5,5"/>
<path fill="#FF7F00" stroke="#000000" d="M482.495,234.5c2.761,0,5,2.239,5,5s-2.239,5-5,5"/>
<path fill="#FF7F00" stroke="#000000" d="M500.5,306.5c2.761,0,5,2.239,5,5s-2.239,5-5,5"/>
<path fill="#FFFF00" stroke="#000000" d="M572.5,35.5c2.761,0,5,2.239,5,5s-2.239,5-5,5"/>
<path fill="#FFFF00" stroke="#000000" d="M572.5,107.5c2.761,0,5,2.239,5,5s-2.239,5-5,5"/>
<path fill="#FFFF00" stroke="#000000" d="M589.5,179.5c2.761,0,5,2.239,5,5s-2.239,5-5,5"/>
<path fill="#FFFF00" stroke="#000000" d="M554.495,251.5c2.761,0,5,2.239,5,5s-2.239,5-5,5"/>
<path fill="#FFFF00" stroke="#000000" d="M572.5,323.5c2.761,0,5,2.239,5,5s-2.239,5-5,5"/>
<path fill="#E4BC96" stroke="#000000" d="M644.5,0.5c2.761,0,5,2.239,5,5s-2.239,5-5,5"/>
<path fill="#E4BC96" stroke="#000000" d="M644.5,72.5c2.761,0,5,2.239,5,5s-2.239,5-5,5"/>
<path fill="#E4BC96" stroke="#000000" d="M661.5,144.5c2.761,0,5,2.239,5,5s-2.239,5-5,5"/>
<path fill="#E4BC96" stroke="#000000" d="M626.495,216.5c2.761,0,5,2.239,5,5s-2.239,5-5,5"/>
<path fill="#E4BC96" stroke="#000000" d="M644.5,288.5c2.761,0,5,2.239,5,5s-2.239,5-5,5"/>
</svg>
